<svg width="20" height="20" viewBox="0 0 20 20" fill="none" xmlns="http://www.w3.org/2000/svg">
<path d="M3.33341 15.8333H1.66675C1.66675 13.0719 3.90532 10.8333 6.66675 10.8333C9.42817 10.8333 11.6667 13.0719 11.6667 15.8333H10.0001C10.0001 13.9924 8.5077 12.5 6.66675 12.5C4.8258 12.5 3.33341 13.9924 3.33341 15.8333ZM15.8334 13.3333H14.1667V10.8333H11.6667V9.16665H14.1667V6.66665H15.8334V9.16665H18.3334V10.8333H15.8334V13.3333ZM6.66675 9.99998C4.8258 9.99998 3.33341 8.5076 3.33341 6.66665C3.33341 4.8257 4.8258 3.33331 6.66675 3.33331C8.5077 3.33331 10.0001 4.8257 10.0001 6.66665C9.99779 8.50664 8.50675 9.99768 6.66675 9.99998ZM6.66675 4.99998C5.75624 5.0009 5.01499 5.73235 5.00194 6.64276C4.98889 7.55317 5.70889 8.30557 6.61899 8.33258C7.52909 8.35959 8.29244 7.65123 8.33342 6.74165V7.07498V6.66665C8.33342 5.74617 7.58722 4.99998 6.66675 4.99998Z" fill="#2135E4"/>
</svg>
