<svg width="109" height="24" viewBox="0 0 109 24" fill="none" xmlns="http://www.w3.org/2000/svg">
<g clip-path="url(#clip0_3_2208)">
<path d="M52.6298 20.125C51.6298 20.125 50.7632 20.0833 50.0298 20C49.2965 19.9167 48.684 19.7542 48.1923 19.5125C47.7007 19.2708 47.3173 18.9167 47.0423 18.45C46.7673 17.9833 46.584 17.3625 46.4923 16.5875C46.459 16.2292 46.4257 15.8333 46.3923 15.4C46.3673 14.9667 46.3423 14.5167 46.3173 14.05C46.3007 13.575 46.2882 13.1 46.2798 12.625C46.2715 12.15 46.2673 11.6917 46.2673 11.25C46.2673 10.8083 46.2757 10.4042 46.2923 10.0375C46.3173 8.58749 46.5715 7.44999 47.0548 6.62499C47.5465 5.79165 48.2882 5.19999 49.2798 4.84999C50.2798 4.49999 51.5632 4.32499 53.1298 4.32499C53.9298 4.32499 54.7298 4.39165 55.5298 4.52499C56.3382 4.64999 57.0757 4.86249 57.7423 5.16249C58.409 5.46249 58.9465 5.86665 59.3548 6.37499C59.7632 6.87499 59.9673 7.50832 59.9673 8.27499C59.9673 8.79165 59.884 9.22082 59.7173 9.56249C59.5507 9.90415 59.3423 10.175 59.0923 10.375C58.8507 10.575 58.6007 10.7333 58.3423 10.85C58.0507 10.9833 57.8048 11.0958 57.6048 11.1875C57.4132 11.2792 57.3173 11.3542 57.3173 11.4125C57.3173 11.4708 57.4215 11.5292 57.6298 11.5875C57.8465 11.6375 58.1257 11.7125 58.4673 11.8125C59.0423 11.9875 59.5465 12.2375 59.9798 12.5625C60.4215 12.8875 60.7632 13.2833 61.0048 13.75C61.2548 14.2083 61.3798 14.7417 61.3798 15.35C61.3798 15.9083 61.2507 16.4458 60.9923 16.9625C60.7423 17.4708 60.4173 17.9 60.0173 18.25C59.684 18.55 59.2382 18.8167 58.6798 19.05C58.1298 19.2833 57.5132 19.4792 56.8298 19.6375C56.1465 19.7958 55.4423 19.9167 54.7173 20C54.0007 20.0833 53.3048 20.125 52.6298 20.125ZM52.7548 16.525C53.2298 16.525 53.684 16.4917 54.1173 16.425C54.559 16.3583 54.9507 16.2542 55.2923 16.1125C55.6423 15.9708 55.9173 15.7917 56.1173 15.575C56.3257 15.3583 56.4298 15.1 56.4298 14.8C56.4298 14.575 56.3423 14.3875 56.1673 14.2375C56.0007 14.0792 55.7757 13.9542 55.4923 13.8625C55.2173 13.7625 54.9132 13.6875 54.5798 13.6375C54.2465 13.5875 53.909 13.5542 53.5673 13.5375C53.234 13.5125 52.934 13.5 52.6673 13.5C52.5423 13.5 52.409 13.5208 52.2673 13.5625C52.134 13.5958 52.0048 13.6583 51.8798 13.75C51.7548 13.8417 51.6548 13.9833 51.5798 14.175C51.5048 14.3583 51.4673 14.6 51.4673 14.9C51.4673 15.15 51.4798 15.375 51.5048 15.575C51.5382 15.775 51.5965 15.9458 51.6798 16.0875C51.7715 16.2292 51.9007 16.3375 52.0673 16.4125C52.2423 16.4875 52.4715 16.525 52.7548 16.525ZM51.8798 10.225C52.2132 10.225 52.5298 10.2125 52.8298 10.1875C53.1298 10.1542 53.4132 10.1083 53.6798 10.05C53.9465 9.99165 54.2048 9.92499 54.4548 9.84999C54.8132 9.73332 55.0965 9.57499 55.3048 9.37499C55.5215 9.16665 55.6298 8.89165 55.6298 8.54999C55.6298 8.31665 55.5465 8.11249 55.3798 7.93749C55.2215 7.75415 55.009 7.59999 54.7423 7.47499C54.484 7.34999 54.1965 7.25415 53.8798 7.18749C53.5715 7.12082 53.2673 7.08749 52.9673 7.08749C52.7257 7.08749 52.4965 7.11249 52.2798 7.16249C52.0715 7.20415 51.8882 7.27499 51.7298 7.37499C51.5798 7.47499 51.4673 7.59582 51.3923 7.73749C51.359 7.80415 51.3298 7.89582 51.3048 8.01249C51.2798 8.12915 51.259 8.25415 51.2423 8.38749C51.2257 8.52082 51.2132 8.65832 51.2048 8.79999C51.1965 8.93332 51.1923 9.05832 51.1923 9.17499C51.1923 9.51665 51.2423 9.77915 51.3423 9.96249C51.4423 10.1375 51.6215 10.225 51.8798 10.225Z" fill="#2135E4"/>
<path d="M70.5386 19.975C69.497 19.975 68.4928 19.8625 67.5261 19.6375C66.5595 19.4125 65.6928 19.0625 64.9261 18.5875C64.1678 18.1042 63.5636 17.4792 63.1136 16.7125C62.672 15.9375 62.4511 15 62.4511 13.9C62.4511 12.6917 62.6636 11.625 63.0886 10.7C63.5136 9.76665 64.1011 8.98332 64.8511 8.34999C65.6095 7.71665 66.4845 7.24165 67.4761 6.92499C68.4678 6.59999 69.5345 6.43749 70.6761 6.43749C71.7761 6.43749 72.8095 6.57499 73.7761 6.84999C74.7428 7.11665 75.597 7.52915 76.3386 8.08749C77.0803 8.63749 77.6595 9.33749 78.0761 10.1875C78.5011 11.0375 78.7136 12.0458 78.7136 13.2125C78.7136 14.1458 78.497 15.0208 78.0636 15.8375C77.6386 16.6542 77.0511 17.3708 76.3011 17.9875C75.5511 18.6042 74.6845 19.0875 73.7011 19.4375C72.7178 19.7958 71.6636 19.975 70.5386 19.975ZM70.2761 15.3C70.8011 15.3 71.247 15.225 71.6136 15.075C71.9803 14.9167 72.2803 14.7042 72.5136 14.4375C72.7553 14.1708 72.9303 13.8792 73.0386 13.5625C73.1553 13.2458 73.2136 12.925 73.2136 12.6C73.2136 12.1833 73.1303 11.8292 72.9636 11.5375C72.797 11.2375 72.572 10.9958 72.2886 10.8125C72.0136 10.6292 71.7053 10.4958 71.3636 10.4125C71.022 10.3208 70.672 10.275 70.3136 10.275C69.822 10.275 69.3678 10.375 68.9511 10.575C68.5345 10.7667 68.2011 11.0583 67.9511 11.45C67.7011 11.8333 67.5761 12.3125 67.5761 12.8875C67.5761 13.3792 67.6845 13.8083 67.9011 14.175C68.1178 14.5333 68.4261 14.8125 68.8261 15.0125C69.2345 15.2042 69.7178 15.3 70.2761 15.3Z" fill="#2135E4"/>
<path d="M83.6895 19.725C83.2812 19.725 82.9187 19.6708 82.602 19.5625C82.2937 19.4625 82.0187 19.3167 81.777 19.125C81.5353 18.925 81.3228 18.6917 81.1395 18.425C80.9312 18.1167 80.7478 17.7667 80.5895 17.375C80.4312 16.975 80.2978 16.5583 80.1895 16.125C80.0812 15.6833 79.9978 15.2333 79.9395 14.775C79.8895 14.3083 79.8645 13.8583 79.8645 13.425C79.8645 12.025 80.1687 10.8375 80.777 9.86249C81.3853 8.87915 82.2312 8.12915 83.3145 7.61249C84.4062 7.09582 85.677 6.83749 87.127 6.83749C87.8187 6.83749 88.4937 6.89582 89.152 7.01249C89.8103 7.12082 90.402 7.29582 90.927 7.53749C91.4603 7.77082 91.8853 8.06665 92.202 8.42499C92.5187 8.78332 92.677 9.21249 92.677 9.71249C92.677 10.1875 92.5812 10.5583 92.3895 10.825C92.1978 11.0917 91.952 11.2792 91.652 11.3875C91.352 11.4875 91.0395 11.5375 90.7145 11.5375C90.2145 11.5375 89.7478 11.4792 89.3145 11.3625C88.8812 11.2458 88.377 11.1875 87.802 11.1875C87.1437 11.1875 86.627 11.3792 86.252 11.7625C85.877 12.1458 85.6895 12.7208 85.6895 13.4875C85.6895 13.7792 85.702 14.0667 85.727 14.35C85.7603 14.6333 85.7978 14.9083 85.8395 15.175C85.8812 15.4333 85.9228 15.6875 85.9645 15.9375C86.0062 16.1792 86.0395 16.4083 86.0645 16.625C86.0978 16.8417 86.1145 17.0417 86.1145 17.225C86.1145 18.0667 85.9187 18.6958 85.527 19.1125C85.1437 19.5208 84.5312 19.725 83.6895 19.725Z" fill="#2135E4"/>
<path d="M100.032 19.9875C98.7658 19.9875 97.6575 19.8 96.7075 19.425C95.7575 19.0583 95.0158 18.4792 94.4825 17.6875C93.9575 16.8875 93.695 15.8583 93.695 14.6C93.695 13.4333 93.8991 12.4542 94.3075 11.6625C94.7241 10.8625 95.3366 10.2625 96.145 9.86249C96.9533 9.46249 97.945 9.26249 99.12 9.26249C99.6783 9.26249 100.137 9.32499 100.495 9.44999C100.862 9.57499 101.162 9.69582 101.395 9.81249C101.52 9.87915 101.632 9.93749 101.732 9.98749C101.841 10.0375 101.924 10.0625 101.982 10.0625C102.116 10.0625 102.182 9.96249 102.182 9.76249C102.182 9.63749 102.166 9.44582 102.132 9.18749C102.107 8.92915 102.074 8.63749 102.032 8.31249C101.991 7.98749 101.945 7.65832 101.895 7.32499C101.845 6.98332 101.807 6.66249 101.782 6.36249C101.757 6.06249 101.745 5.81665 101.745 5.62499C101.745 3.99165 102.591 3.17499 104.282 3.17499C104.866 3.17499 105.407 3.27915 105.907 3.48749C106.407 3.69582 106.82 4.02499 107.145 4.47499C107.295 4.73332 107.432 5.04165 107.557 5.39999C107.682 5.75832 107.791 6.14999 107.882 6.57499C107.982 6.99165 108.066 7.42499 108.132 7.87499C108.199 8.32499 108.249 8.77082 108.282 9.21249C108.316 9.65415 108.332 10.0667 108.332 10.45C108.332 12.6333 108.07 14.4292 107.545 15.8375C107.02 17.2458 106.153 18.2917 104.945 18.975C103.737 19.65 102.099 19.9875 100.032 19.9875ZM100.195 16.9375C100.712 16.9375 101.153 16.8417 101.52 16.65C101.887 16.4583 102.166 16.1875 102.357 15.8375C102.557 15.4875 102.657 15.0875 102.657 14.6375C102.657 14.1958 102.574 13.8208 102.407 13.5125C102.249 13.2042 102.024 12.9708 101.732 12.8125C101.441 12.6542 101.095 12.575 100.695 12.575C100.22 12.575 99.7866 12.675 99.395 12.875C99.0116 13.075 98.7075 13.3542 98.4825 13.7125C98.2575 14.0708 98.145 14.4875 98.145 14.9625C98.145 15.3708 98.2283 15.725 98.395 16.025C98.57 16.3167 98.8116 16.5417 99.12 16.7C99.4366 16.8583 99.795 16.9375 100.195 16.9375Z" fill="#2135E4"/>
<path d="M2.08004 19.4875C1.49671 19.4875 1.07171 19.3 0.805042 18.925C0.538375 18.5417 0.359208 17.95 0.267542 17.15C0.242542 16.75 0.221708 16.3375 0.205042 15.9125C0.188375 15.4875 0.175875 15.0625 0.167542 14.6375C0.167542 14.2042 0.171708 13.775 0.180042 13.35C0.196708 12.925 0.209208 12.5083 0.217542 12.1C0.250875 11.2583 0.309208 10.4167 0.392542 9.575C0.484208 8.73333 0.617542 7.9125 0.792542 7.1125C0.967542 6.3125 1.19671 5.55833 1.48004 4.85C1.69671 4.425 1.96754 4.11667 2.29254 3.925C2.61754 3.725 3.00921 3.625 3.46754 3.625C3.84254 3.625 4.13837 3.74167 4.35504 3.975C4.57171 4.20833 4.68004 4.5125 4.68004 4.8875C4.68004 5.07917 4.65921 5.35 4.61754 5.7C4.58421 6.04167 4.53837 6.41667 4.48004 6.825C4.43004 7.23333 4.37587 7.6375 4.31754 8.0375C4.26754 8.42917 4.22588 8.78333 4.19254 9.1C4.15921 9.40833 4.14671 9.62917 4.15504 9.7625C4.18004 9.9375 4.22171 10.0667 4.28004 10.15C4.33838 10.225 4.44671 10.2625 4.60504 10.2625C4.73838 10.2625 4.88838 10.2208 5.05504 10.1375C5.22171 10.0458 5.40504 9.91667 5.60504 9.75C6.08004 9.36667 6.69254 8.88333 7.44254 8.3C8.20088 7.70833 8.97171 7.10417 9.75504 6.4875C10.4217 5.9625 11.005 5.55 11.505 5.25C12.0134 4.94167 12.4425 4.7875 12.7925 4.7875C13.0759 4.7875 13.3009 4.84167 13.4675 4.95C13.6342 5.05 13.755 5.1875 13.83 5.3625C13.9134 5.52917 13.955 5.70833 13.955 5.9C13.955 6.04167 13.9092 6.2 13.8175 6.375C13.7342 6.55 13.605 6.7375 13.43 6.9375C13.2634 7.1375 13.055 7.35 12.805 7.575C12.5634 7.8 12.2842 8.03333 11.9675 8.275C11.5259 8.6 11.0384 8.94583 10.505 9.3125C9.97171 9.67083 9.45088 10.0125 8.94254 10.3375C8.43421 10.6542 8.00504 10.9167 7.65504 11.125C7.37171 11.275 7.16754 11.4 7.04254 11.5C6.91754 11.6 6.85504 11.6958 6.85504 11.7875C6.85504 11.8708 6.88838 11.9583 6.95504 12.05C7.02171 12.1417 7.13838 12.2583 7.30504 12.4C7.43838 12.525 7.64254 12.7083 7.91754 12.95C8.20088 13.1917 8.51337 13.4625 8.85504 13.7625C9.19671 14.0542 9.53004 14.3458 9.85504 14.6375C10.1884 14.9208 10.48 15.1792 10.73 15.4125C10.9884 15.6375 11.1717 15.7958 11.28 15.8875C11.9717 16.5292 12.4634 17.0417 12.755 17.425C13.055 17.8 13.205 18.0875 13.205 18.2875C13.205 18.5625 13.1467 18.7833 13.03 18.95C12.9134 19.1083 12.7509 19.225 12.5425 19.3C12.3342 19.3833 12.0925 19.425 11.8175 19.425C11.4842 19.425 11.08 19.3 10.605 19.05C10.1384 18.7917 9.54671 18.3417 8.83004 17.7C8.15504 17.075 7.60088 16.55 7.16754 16.125C6.74254 15.7 6.39254 15.3458 6.11754 15.0625C5.85088 14.7792 5.62171 14.5333 5.43004 14.325C5.24671 14.1083 5.05504 13.8958 4.85504 13.6875C4.69671 13.4792 4.56754 13.3208 4.46754 13.2125C4.36754 13.0958 4.28004 13.0167 4.20504 12.975C4.13838 12.925 4.07171 12.9 4.00504 12.9C3.91338 12.9 3.84671 12.9417 3.80504 13.025C3.76338 13.1083 3.74254 13.2333 3.74254 13.4C3.74254 13.4417 3.73837 13.575 3.73004 13.8C3.73004 14.0167 3.72587 14.275 3.71754 14.575C3.71754 14.875 3.70921 15.1833 3.69254 15.5C3.68421 15.8083 3.67587 16.0917 3.66754 16.35C3.66754 16.6 3.66337 16.775 3.65504 16.875C3.60504 17.85 3.45921 18.5292 3.21754 18.9125C2.97588 19.2958 2.59671 19.4875 2.08004 19.4875Z" fill="#0F1867"/>
<path d="M20.3234 20.4625C19.6484 20.4625 19.0067 20.3958 18.3984 20.2625C17.7984 20.1292 17.2651 19.9167 16.7984 19.625C16.3317 19.3333 15.9651 18.9542 15.6984 18.4875C15.4317 18.0208 15.2984 17.45 15.2984 16.775C15.2984 16.0083 15.4859 15.3792 15.8609 14.8875C16.2359 14.3958 16.7442 14.0125 17.3859 13.7375C18.0359 13.4542 18.7651 13.2583 19.5734 13.15C20.3817 13.0417 21.2192 12.9875 22.0859 12.9875C22.3526 12.9875 22.6234 12.9958 22.8984 13.0125C23.1734 13.0292 23.4317 13.0458 23.6734 13.0625C23.9234 13.0792 24.1276 13.0875 24.2859 13.0875C24.5026 13.0875 24.6484 13.0542 24.7234 12.9875C24.7984 12.9125 24.8359 12.7875 24.8359 12.6125C24.8359 12.2875 24.7942 12 24.7109 11.75C24.6359 11.5 24.5234 11.2792 24.3734 11.0875C24.2234 10.8958 24.0442 10.7333 23.8359 10.6C23.5026 10.375 23.0984 10.2167 22.6234 10.125C22.1567 10.025 21.6526 9.975 21.1109 9.975C20.4692 9.975 19.8984 10.0417 19.3984 10.175C18.9067 10.3083 18.4692 10.4458 18.0859 10.5875C17.7026 10.7292 17.3526 10.8 17.0359 10.8C16.6026 10.8 16.2692 10.7292 16.0359 10.5875C15.8026 10.4458 15.6859 10.2167 15.6859 9.9C15.6859 9.575 15.8234 9.275 16.0984 9C16.3734 8.725 16.7526 8.48333 17.2359 8.275C17.7276 8.06667 18.2942 7.90417 18.9359 7.7875C19.5859 7.67083 20.2776 7.6125 21.0109 7.6125C22.4859 7.6125 23.7192 7.8 24.7109 8.175C25.7109 8.54167 26.4609 9.14167 26.9609 9.975C27.4609 10.8 27.7109 11.9125 27.7109 13.3125C27.7109 13.7292 27.6901 14.0917 27.6484 14.4C27.6067 14.7083 27.5526 14.9792 27.4859 15.2125C27.4276 15.4375 27.3776 15.6333 27.3359 15.8C27.2942 15.9667 27.2734 16.1208 27.2734 16.2625C27.2734 16.4625 27.3359 16.6542 27.4609 16.8375C27.5942 17.0125 27.7484 17.1875 27.9234 17.3625C28.1067 17.5375 28.2651 17.725 28.3984 17.925C28.5317 18.1167 28.5984 18.3333 28.5984 18.575C28.5984 18.9333 28.4817 19.1917 28.2484 19.35C28.0151 19.5083 27.7567 19.5875 27.4734 19.5875C27.2151 19.5875 26.9984 19.5 26.8234 19.325C26.6567 19.1583 26.5026 18.9917 26.3609 18.825C26.2276 18.6583 26.0609 18.575 25.8609 18.575C25.7442 18.575 25.6151 18.6083 25.4734 18.675C25.3401 18.7417 25.1734 18.8458 24.9734 18.9875C24.7234 19.1708 24.4026 19.375 24.0109 19.6C23.6276 19.8333 23.1359 20.0333 22.5359 20.2C21.9359 20.375 21.1984 20.4625 20.3234 20.4625ZM20.6609 18.55C21.1776 18.55 21.6776 18.4708 22.1609 18.3125C22.6442 18.1458 23.0776 17.9208 23.4609 17.6375C23.8442 17.3458 24.1484 17.0083 24.3734 16.625C24.5984 16.2333 24.7109 15.8125 24.7109 15.3625C24.7109 15.0792 24.6151 14.875 24.4234 14.75C24.2401 14.625 23.9359 14.5458 23.5109 14.5125C23.0859 14.4792 22.5234 14.4625 21.8234 14.4625C21.1317 14.4625 20.4901 14.5333 19.8984 14.675C19.3067 14.8083 18.8317 15.0375 18.4734 15.3625C18.1151 15.6792 17.9359 16.1125 17.9359 16.6625C17.9359 17.0875 18.0442 17.4375 18.2609 17.7125C18.4776 17.9875 18.7901 18.1958 19.1984 18.3375C19.6067 18.4792 20.0942 18.55 20.6609 18.55Z" fill="#0F1867"/>
<path d="M31.3416 19.525C30.9499 19.525 30.6416 19.4208 30.4166 19.2125C30.1916 19.0042 30.0291 18.6667 29.9291 18.2C29.8957 17.9833 29.8749 17.7375 29.8666 17.4625C29.8582 17.1875 29.8582 16.875 29.8666 16.525C29.8749 16.175 29.8957 15.7917 29.9291 15.375C30.0291 13.7167 30.3666 12.3125 30.9416 11.1625C31.5166 10.0042 32.3166 9.125 33.3416 8.525C34.3666 7.91667 35.5874 7.6125 37.0041 7.6125C38.4291 7.6125 39.6499 7.9 40.6666 8.475C41.6832 9.05 42.4624 9.93333 43.0041 11.125C43.5457 12.3167 43.8166 13.8375 43.8166 15.6875C43.8166 16.0208 43.8082 16.3292 43.7916 16.6125C43.7832 16.8958 43.7666 17.1542 43.7416 17.3875C43.7166 17.6208 43.6791 17.8333 43.6291 18.025C43.5041 18.5583 43.3166 18.9417 43.0666 19.175C42.8249 19.4083 42.5082 19.525 42.1166 19.525C41.7166 19.525 41.4124 19.4583 41.2041 19.325C40.9957 19.1917 40.8457 18.9917 40.7541 18.725C40.6624 18.4583 40.5999 18.1292 40.5666 17.7375C40.5416 17.1125 40.5166 16.5625 40.4916 16.0875C40.4749 15.6042 40.4457 15.175 40.4041 14.8C40.3707 14.4167 40.3291 14.0625 40.2791 13.7375C40.2291 13.4042 40.1666 13.0708 40.0916 12.7375C39.8999 11.8875 39.5791 11.2417 39.1291 10.8C38.6791 10.3583 38.0082 10.1375 37.1166 10.1375C36.2582 10.1375 35.5666 10.375 35.0416 10.85C34.5249 11.325 34.1249 11.9792 33.8416 12.8125C33.7166 13.1625 33.6124 13.5292 33.5291 13.9125C33.4457 14.2958 33.3749 14.6917 33.3166 15.1C33.2666 15.5083 33.2207 15.9375 33.1791 16.3875C33.1457 16.8375 33.1124 17.3083 33.0791 17.8C33.0374 18.2667 32.9374 18.625 32.7791 18.875C32.6207 19.125 32.4207 19.2958 32.1791 19.3875C31.9374 19.4792 31.6582 19.525 31.3416 19.525Z" fill="#0F1867"/>
</g>
<defs>
<clipPath id="clip0_3_2208">
<rect width="108.5" height="24" fill="white"/>
</clipPath>
</defs>
</svg>
